<?xml version="1.0" encoding="UTF-8"?>
<svg version="1.1" xmlns="http://www.w3.org/2000/svg" width="1024" height="1024">
<path d="M0 0 C337.92 0 675.84 0 1024 0 C1024 337.92 1024 675.84 1024 1024 C686.08 1024 348.16 1024 0 1024 C0 686.08 0 348.16 0 0 Z " fill="#FEFEFE" transform="translate(0,0)"/>
<path d="M0 0 C1.31266846 0.00737183 1.31266846 0.00737183 2.65185547 0.01489258 C18.02387147 0.29198105 31.05604256 5.61828476 42.1875 16.3125 C53.3663376 29.21417071 59.05762839 45.02458045 58.4609375 62.16796875 C56.94773542 79.56979263 51.54772245 95.34539476 38.1875 107.3125 C35.3168117 109.60109032 32.39290025 111.52671462 29.1875 113.3125 C28.52621094 113.69019531 27.86492187 114.06789063 27.18359375 114.45703125 C12.53969618 121.87623552 -4.37831102 121.52182427 -19.8125 117.3125 C-34.30396996 111.92995401 -45.14050527 101.02001611 -51.63745117 87.13085938 C-55.35805671 78.20697193 -56.29419424 69.33469957 -56.1875 59.75 C-56.19910156 58.70392578 -56.21070313 57.65785156 -56.22265625 56.58007812 C-56.16788685 41.87449384 -50.94414265 26.7228917 -40.609375 15.9765625 C-28.97386986 5.20107295 -15.77548501 -0.10549607 0 0 Z " fill="#050505" transform="translate(701.8125,454.6875)"/>
<path d="M0 0 C1.5631897 0.00785522 1.5631897 0.00785522 3.15795898 0.01586914 C4.28266602 0.0190918 5.40737305 0.02231445 6.56616211 0.02563477 C7.75016602 0.03401367 8.93416992 0.04239258 10.15405273 0.05102539 C11.34192383 0.05553711 12.52979492 0.06004883 13.75366211 0.06469727 C16.69967499 0.07652864 19.64558954 0.09301252 22.59155273 0.11352539 C27.9344478 18.06785902 33.21323521 36.04048422 38.46557617 54.02148438 C39.64039247 58.04305861 40.81794771 62.06382136 41.99737549 66.08404541 C42.52680808 67.89238264 43.05237056 69.70185192 43.57739258 71.51147461 C43.84374512 72.4204248 44.11009766 73.329375 44.38452148 74.26586914 C44.60003662 75.00699951 44.81555176 75.74812988 45.03759766 76.51171875 C45.46884464 78.13653828 45.46884464 78.13653828 46.59155273 79.11352539 C46.81294922 78.24775879 47.0343457 77.38199219 47.26245117 76.48999023 C48.10335291 73.2055733 48.9460197 69.92161887 49.78979492 66.63793945 C50.1511543 65.23023682 50.51185639 63.82236525 50.87182617 62.41430664 C53.29588886 52.9347319 55.8602449 43.51020304 58.59155273 34.11352539 C58.97234503 32.79186933 59.35270188 31.47008775 59.73266602 30.14819336 C60.71291261 26.73867751 61.69718619 23.33034558 62.68359375 19.92260742 C63.08671449 18.52862615 63.48903501 17.13441327 63.890625 15.73999023 C64.48050149 13.69209038 65.07285719 11.64492248 65.66577148 9.59790039 C66.01212646 8.39875 66.35848145 7.19959961 66.71533203 5.96411133 C67.59155273 3.11352539 67.59155273 3.11352539 68.59155273 1.11352539 C77.17155273 1.11352539 85.75155273 1.11352539 94.59155273 1.11352539 C92.34179424 12.36231784 92.34179424 12.36231784 91.05444336 16.40673828 C90.76618179 17.32170578 90.47792023 18.23667328 90.18092346 19.17936707 C89.7190287 20.61824028 89.7190287 20.61824028 89.24780273 22.08618164 C88.92243027 23.11516068 88.5970578 24.14413971 88.26182556 25.20429993 C87.20959134 28.5296612 86.15050206 31.85279718 85.09155273 35.17602539 C83.63177771 39.78323232 82.17588355 44.39166129 80.72045898 49.00024414 C80.36186295 50.13431702 80.00326691 51.26838989 79.63380432 52.43682861 C76.68897361 61.76487086 73.83535478 71.11803579 71.02905273 80.48852539 C67.44327299 92.44725345 63.61836604 104.29570373 59.59155273 116.11352539 C51.01155273 116.11352539 42.43155273 116.11352539 33.59155273 116.11352539 C29.81968698 103.7881373 26.08486665 91.45453612 22.44311523 79.09008789 C22.09641785 77.91387878 21.74972046 76.73766968 21.39251709 75.52581787 C19.96577597 70.68341742 18.54003686 65.8407303 17.1184082 60.99682617 C16.06284405 57.40206216 15.00331362 53.8084874 13.94311523 50.21508789 C13.62025543 49.11121735 13.29739563 48.0073468 12.9647522 46.87002563 C12.51825821 45.35981339 12.51825821 45.35981339 12.06274414 43.8190918 C11.8018399 42.93138092 11.54093567 42.04367004 11.27212524 41.12905884 C10.76685619 39.14091923 10.76685619 39.14091923 9.59155273 38.11352539 C9.25124023 39.25563477 8.91092773 40.39774414 8.56030273 41.57446289 C5.69663935 51.16330479 2.79289453 60.73879649 -0.15844727 70.30102539 C-4.96873301 85.88692159 -9.68772768 101.50032577 -14.40844727 117.11352539 C-22.65844727 117.11352539 -30.90844727 117.11352539 -39.40844727 117.11352539 C-40.53379883 113.48352539 -41.65915039 109.85352539 -42.81860352 106.11352539 C-44.36910854 101.1134397 -45.91997249 96.11346538 -47.47094727 91.11352539 C-47.67233936 90.46426086 -47.87373146 89.81499634 -48.08122635 89.14605713 C-54.60059785 68.12905744 -61.14440726 47.1198464 -67.72314453 26.12133789 C-68.01847076 25.17798584 -68.313797 24.23463379 -68.61807251 23.26269531 C-69.15862449 21.53613122 -69.69964941 19.80971507 -70.24130249 18.08349609 C-72.00824521 12.43878404 -73.70851988 6.77995 -75.40844727 1.11352539 C-66.49844727 1.11352539 -57.58844727 1.11352539 -48.40844727 1.11352539 C-46.46756746 6.9361648 -44.60873944 12.70953353 -42.95532227 18.60961914 C-42.62341637 19.78459457 -42.62341637 19.78459457 -42.2848053 20.98330688 C-41.57341382 23.50515505 -40.86552234 26.02796383 -40.15844727 28.55102539 C-39.91677826 29.4120285 -39.67510925 30.27303162 -39.42611694 31.16012573 C-37.97054055 36.34777328 -36.52058166 41.53696655 -35.07415771 46.72717285 C-34.45573397 48.94401813 -33.83509271 51.16022774 -33.21362305 53.3762207 C-32.20574224 56.9733317 -31.21169277 60.57415376 -30.22094727 64.17602539 C-29.92994141 65.21364014 -29.63893555 66.25125488 -29.33911133 67.3203125 C-28.05954598 72.02569552 -27.0345013 76.18574851 -27.40844727 81.11352539 C-26.74844727 81.11352539 -26.08844727 81.11352539 -25.40844727 81.11352539 C-25.28522095 79.94824814 -25.16199463 78.78297089 -25.03503418 77.5823822 C-24.51692192 73.46173134 -23.5498363 69.60323852 -22.38305664 65.61181641 C-22.17969193 64.90999741 -21.97632721 64.20817841 -21.76679993 63.48509216 C-21.10124414 61.19408024 -20.42694968 58.90575018 -19.75219727 56.61743164 C-19.28475371 55.01713278 -18.81776044 53.41670232 -18.35119629 51.81614685 C-17.37653643 48.47737434 -16.39776405 45.13984567 -15.41577148 41.80322266 C-14.15497536 37.5187247 -12.90257499 33.23182899 -11.65294647 28.94406223 C-10.69131912 25.64660574 -9.72633554 22.35013949 -8.76020813 19.05399895 C-8.29689503 17.472519 -7.83439973 15.89079923 -7.37272644 14.3088398 C-6.72969876 12.1080744 -6.08241285 9.90860862 -5.43383789 7.70947266 C-5.06601196 6.45675064 -4.69818604 5.20402863 -4.31921387 3.91334534 C-3.09365905 0.14582377 -3.09365905 0.14582377 0 0 Z " fill="#050505" transform="translate(833.408447265625,455.886474609375)"/>
<path d="M0 0 C2.8125 2.375 2.8125 2.375 5 5 C5.48984375 5.56203125 5.9796875 6.1240625 6.484375 6.703125 C13.92677188 15.76663804 16.17200046 26.32958131 16.11352539 37.84130859 C16.11367142 38.60296326 16.11381744 39.36461792 16.1139679 40.14935303 C16.11327518 42.64907754 16.10551299 45.14872612 16.09765625 47.6484375 C16.09578979 49.38864094 16.09436696 51.12884491 16.09336853 52.86904907 C16.08956131 57.43598903 16.07974642 62.00289689 16.06866455 66.56982422 C16.05841177 71.23534715 16.05386264 75.90087529 16.04882812 80.56640625 C16.03812247 89.71095383 16.02054028 98.85546922 16 108 C7.75 108 -0.5 108 -9 108 C-9.33 103.71 -9.66 99.42 -10 95 C-11.65 96.2375 -13.3 97.475 -15 98.75 C-26.29674748 106.93688742 -38.82285864 111.60906068 -53.06933594 109.7265625 C-65.25430822 107.51623898 -74.74943552 103.4046562 -82 93 C-86.00466675 85.18136491 -87.37728535 75.82442361 -85.3515625 67.2578125 C-82.50640624 58.47916797 -78.06380223 52.59416747 -70.1875 47.75 C-62.55056146 43.91594514 -54.35433492 42.45313912 -46 41 C-45.1342334 40.84901855 -44.2684668 40.69803711 -43.37646484 40.54248047 C-32.18396206 38.65018609 -21.35617338 37.52900663 -10 38 C-10.3985133 35.59986309 -10.81794313 33.20662956 -11.25 30.8125 C-11.41435547 29.80219727 -11.41435547 29.80219727 -11.58203125 28.77148438 C-12.43503236 24.16976787 -13.69923841 21.31883145 -17 18 C-18.94237227 16.63632977 -18.94237227 16.63632977 -21 15.75 C-21.66 15.43546875 -22.32 15.1209375 -23 14.796875 C-29.55050319 12.18690889 -37.88907472 11.40908465 -44.5234375 13.9765625 C-50.211674 17.42333778 -52.52059005 20.80147511 -55 27 C-63.91 27 -72.82 27 -82 27 C-80.46010219 16.22071533 -76.06858691 8.36329085 -68 1 C-48.82704305 -13.16324884 -19.64089485 -13.07169912 0 0 Z " fill="#050505" transform="translate(280,465)"/>
<path d="M0 0 C8.58 0 17.16 0 26 0 C26.33 29.37 26.66 58.74 27 89 C31.58370881 84.41629119 35.90580113 80.06074959 40.09375 75.1875 C42.30945648 72.64488601 44.59098592 70.16889802 46.875 67.6875 C51.0673119 63.09956658 55.02594134 58.37076792 58.89453125 53.5078125 C59.58933594 52.68023437 60.28414063 51.85265625 61 51 C61.71397949 50.13334717 62.42795898 49.26669434 63.16357422 48.3737793 C66.82385075 45.31052669 68.76661565 45.41766167 73.48828125 45.51171875 C74.19147995 45.51879349 74.89467865 45.52586823 75.6191864 45.53315735 C77.85140227 45.56100788 80.08105077 45.6237168 82.3125 45.6875 C83.83134381 45.71259549 85.3502272 45.73540648 86.86914062 45.75585938 C90.58025248 45.81079993 94.28987541 45.89700261 98 46 C92.81152151 53.48148025 86.5377534 59.65881184 80.0625 66 C77.94574967 68.07983959 75.83233395 70.1629865 73.72265625 72.25 C72.96718758 72.99715271 72.96718758 72.99715271 72.19645691 73.75939941 C68.75368768 77.18838574 65.48487922 80.72054186 62.34521484 84.42773438 C60.66492318 86.39163243 58.86387018 88.21068463 57 90 C58.36388441 93.74900245 60.06988242 96.83070522 62.3125 100.125 C63.0240625 101.17429687 63.735625 102.22359375 64.46875 103.3046875 C65.31226114 104.53662192 66.15603084 105.76837932 67 107 C68.0106069 108.4816411 69.0210121 109.96341978 70.03125 111.4453125 C74.31623954 117.72350079 78.61394467 123.99290937 82.9296875 130.25 C87.52707614 136.91569082 92.1060883 143.59328051 96.625 150.3125 C97.05127686 150.94124023 97.47755371 151.56998047 97.91674805 152.21777344 C99.64565907 154.80134292 101.01152577 157.03457732 102 160 C76.48531203 162.18423011 76.48531203 162.18423011 69.80712891 158.93212891 C66.48690103 156.00871632 64.81730809 152.19748991 63.06542969 148.20361328 C61.05225041 144.0397828 58.23274675 140.38657827 55.5625 136.625 C54.46273467 135.01665012 53.36636846 133.40597062 52.2734375 131.79296875 C50.10965192 128.61567479 47.92749765 125.45245148 45.7265625 122.30078125 C45.21407959 121.56456543 44.70159668 120.82834961 44.17358398 120.06982422 C43.20283793 118.67693839 42.22853946 117.28651978 41.25024414 115.89892578 C38 111.22330717 38 111.22330717 38 109 C36.72799029 110.10281127 35.45744147 111.20730769 34.1875 112.3125 C33.12595703 113.23482422 33.12595703 113.23482422 32.04296875 114.17578125 C31.36878906 114.77777344 30.69460938 115.37976563 30 116 C29.2076722 116.67196159 29.2076722 116.67196159 28.39933777 117.35749817 C26.65506261 119.40487744 26.60858132 120.44221412 26.56762695 123.10424805 C26.54783279 123.92487228 26.52803864 124.74549652 26.50764465 125.59098816 C26.49805977 126.9129998 26.49805977 126.9129998 26.48828125 128.26171875 C26.47033005 129.16751175 26.45237885 130.07330475 26.43388367 131.00654602 C26.37969341 133.90014996 26.34585714 136.79358815 26.3125 139.6875 C26.27933461 141.64911165 26.24484568 143.61070141 26.20898438 145.57226562 C26.1214691 150.38153542 26.06147585 155.19004445 26 160 C17.42 160 8.84 160 0 160 C0 107.2 0 54.4 0 0 Z " fill="#040404" transform="translate(416,412)"/>
<path d="M0 0 C38.94 0 77.88 0 118 0 C118 8.25 118 16.5 118 25 C103.15 25 88.3 25 73 25 C73 68.89 73 112.78 73 158 C64.09 158 55.18 158 46 158 C46 114.11 46 70.22 46 25 C30.82 25 15.64 25 0 25 C0 16.75 0 8.5 0 0 Z " fill="#030303" transform="translate(95,414)"/>
<path d="M0 0 C14.00893735 -0.62539899 29.05225176 3.93719044 39.5 13.4453125 C45.89405844 20.42344359 47.58088054 26.79823735 48.625 36.1953125 C40.705 36.1953125 32.785 36.1953125 24.625 36.1953125 C23.635 34.2153125 22.645 32.2353125 21.625 30.1953125 C20.04361921 28.35114511 20.04361921 28.35114511 18.25 26.9453125 C17.68539062 26.46578125 17.12078125 25.98625 16.5390625 25.4921875 C9.87689939 20.97823208 2.33089515 21.66415324 -5.375 22.1953125 C-9.30153614 22.98755911 -12.27256077 24.2651294 -15.375 26.8828125 C-16.87075425 30.34174421 -16.98842047 33.53669753 -16.375 37.1953125 C-14.34961189 41.43898282 -11.68075785 42.64434843 -7.453125 44.21484375 C-1.51576776 46.30511283 4.34674955 47.27723742 10.5625 48.1328125 C24.43952439 50.28511968 34.96163905 53.25324594 44.625 64.1953125 C50.04776363 72.23596203 50.64443406 81.24791106 49 90.6328125 C46.52770882 100.52197724 40.5317715 107.5137566 32.07421875 112.78515625 C17.57724668 120.80851427 0.59148565 122.08069304 -15.375 118.1953125 C-27.83906603 114.19179819 -36.91241629 107.70186398 -43.375 96.1953125 C-45.11630888 92.17357063 -46.375 88.5952103 -46.375 84.1953125 C-42.48017784 83.96249177 -38.58714146 83.82074611 -34.6875 83.6953125 C-33.58470703 83.62828125 -32.48191406 83.56125 -31.34570312 83.4921875 C-28.17393245 83.41552839 -25.46005352 83.44299943 -22.375 84.1953125 C-20.47488646 86.05797736 -19.51085828 87.78346474 -18.36132812 90.1730957 C-16.93299107 93.10154021 -15.11757297 94.49713763 -12.375 96.1953125 C-3.98904766 99.03158698 5.63433168 100.99902595 13.9453125 97.109375 C17.39630782 95.06846379 19.36935067 93.57878649 21.625 90.1953125 C22.17066916 87.12807741 22.14402118 84.26618783 21.625 81.1953125 C17.03192786 74.7928483 9.91024854 73.03972044 2.5 71.6953125 C1.17818518 71.44245072 -0.14342648 71.18852489 -1.46484375 70.93359375 C-3.91504644 70.47096807 -6.36552525 70.00979983 -8.81640625 69.55078125 C-20.90668205 67.06289056 -31.10667824 62.79148511 -38.0625 52.2578125 C-43.11853984 44.23731934 -43.70755489 35.33942786 -41.72265625 26.1875 C-38.58337448 16.51366176 -32.8615682 10.37074122 -24.0546875 5.4453125 C-16.38361139 1.86696796 -8.34138423 0.6859691 0 0 Z " fill="#050505" transform="translate(353.375,454.8046875)"/>
<path d="M0 0 C0 6.6 0 13.2 0 20 C-2.145 20.103125 -4.29 20.20625 -6.5 20.3125 C-12.29743182 20.74041964 -16.84991284 21.27919924 -22 24 C-26.21380865 29.16531382 -26.18737126 35.39324092 -26.5625 41.8125 C-26.706875 44.184375 -26.85125 46.55625 -27 49 C-18.75 49 -10.5 49 -2 49 C-2 56.26 -2 63.52 -2 71 C-10.25 71 -18.5 71 -27 71 C-27 101.03 -27 131.06 -27 162 C-35.25 162 -43.5 162 -52 162 C-52 131.64 -52 101.28 -52 70 C-58.6 70 -65.2 70 -72 70 C-72 62.74 -72 55.48 -72 48 C-65.4 48 -58.8 48 -52 48 C-52.03480469 46.37191406 -52.06960938 44.74382812 -52.10546875 43.06640625 C-52.13362405 40.89844789 -52.16092233 38.73047828 -52.1875 36.5625 C-52.21263672 35.49322266 -52.23777344 34.42394531 -52.26367188 33.32226562 C-52.35928622 22.90030185 -50.60710691 15.63579047 -43.2890625 8.01171875 C-31.49992554 -2.34904155 -14.70426048 -2.10060864 0 0 Z " fill="#040405" transform="translate(591,410)"/>
<path d="M0 0 C8.25 0 16.5 0 25 0 C25 52.8 25 105.6 25 160 C16.75 160 8.5 160 0 160 C0 107.2 0 54.4 0 0 Z " fill="#030303" transform="translate(605,412)"/>
<path d="M0 0 C7.32943729 5.03314729 11.95808616 11.44533833 13.61328125 20.26953125 C14.91647445 32.8407384 15.82973015 47.59313786 8.25 58.375 C2.28416572 65.44289727 -3.64051086 70.33959151 -13.046875 71.31640625 C-22.17765174 71.64862935 -29.52079416 69.94201053 -36.8125 64.3125 C-43.83190304 57.75664245 -46.96467705 48.86233101 -47.3359375 39.453125 C-47.35967285 37.3855119 -47.37242817 35.31774773 -47.375 33.25 C-47.41173828 31.71859375 -47.41173828 31.71859375 -47.44921875 30.15625 C-47.49066189 19.27051977 -44.66797809 10.76750419 -37.08984375 2.87890625 C-27.30274796 -5.92033314 -11.06901146 -7.32859894 0 0 Z " fill="#FDFDFD" transform="translate(719,481)"/>
<path d="M0 0 C0.92345715 16.90952646 0.92345715 16.90952646 -3.3203125 22.328125 C-11.80445814 30.7728095 -20.39832153 34.78226165 -32.4375 35.25 C-38.06413778 35.17422037 -42.05970173 33.68499587 -46.375 29.9375 C-49.74744378 25.91650934 -49.3947345 22.08092316 -49.33984375 16.98828125 C-48.81284049 12.35428703 -47.58042407 10.97099019 -44 8 C-37.94079574 4.86981347 -31.82398497 3.90751926 -25.125 2.875 C-24.08730469 2.70613281 -23.04960937 2.53726563 -21.98046875 2.36328125 C-7.22391732 0 -7.22391732 0 0 0 Z " fill="#FDFDFD" transform="translate(270,519)"/>
<path d="M0 0 C0.33 0 0.66 0 1 0 C1 25.41 1 50.82 1 77 C-7.25 77 -15.5 77 -24 77 C-23.67 76.01 -23.34 75.02 -23 74 C-16.07 74 -9.14 74 -2 74 C-2 62.12 -2 50.24 -2 38 C-1.67 38 -1.34 38 -1 38 C-0.67 25.46 -0.34 12.92 0 0 Z " fill="#3F3F3F" transform="translate(295,496)"/>
<path d="M0 0 C0 0.66 0 1.32 0 2 C-7.92 2 -15.84 2 -24 2 C-24 1.34 -24 0.68 -24 0 C-20.3754207 -0.19632025 -16.75032733 -0.38055978 -13.125 -0.5625 C-12.09246094 -0.61857422 -11.05992187 -0.67464844 -9.99609375 -0.73242188 C-8.51689453 -0.80493164 -8.51689453 -0.80493164 -7.0078125 -0.87890625 C-6.09660645 -0.9260376 -5.18540039 -0.97316895 -4.24658203 -1.02172852 C-2 -1 -2 -1 0 0 Z " fill="#3C3C3C" transform="translate(402,489)"/>
</svg>
